<?xml version="1.0" encoding="UTF-8" standalone="no"?><!DOCTYPE svg PUBLIC "-//W3C//DTD SVG 1.1//EN" "http://www.w3.org/Graphics/SVG/1.1/DTD/svg11.dtd"><!-- Generated by graphviz version 2.40.1 (20161225.0304)
 --><!-- Title: %0 Pages: 1 --><svg xmlns="http://www.w3.org/2000/svg" xmlns:xlink="http://www.w3.org/1999/xlink" width="312pt" height="399pt" viewBox="0.00 0.00 311.79 399.20">
<g id="graph0" class="graph" transform="scale(1 1) rotate(0) translate(4 395.2)">
<title>%0</title>
<polygon fill="#ffffff" stroke="transparent" points="-4,4 -4,-395.2 307.7891,-395.2 307.7891,4 -4,4"/>
<!-- home -->
<g id="node1" class="node">
<title>home</title>
<ellipse fill="none" stroke="#000000" cx="203.7891" cy="-373.2" rx="32.4846" ry="18"/>
<text text-anchor="middle" x="203.7891" y="-369" font-family="Times,serif" font-size="14.00" fill="#000000">home</text>
</g>
<!-- cave -->
<g id="node2" class="node">
<title>cave</title>
<ellipse fill="none" stroke="#000000" cx="81.7891" cy="-284.4" rx="28.952" ry="18"/>
<text text-anchor="middle" x="81.7891" y="-280.2" font-family="Times,serif" font-size="14.00" fill="#000000">cave</text>
</g>
<!-- home&#45;&gt;cave -->
<g id="edge1" class="edge">
<title>home-&gt;cave</title>
<path fill="none" stroke="#000000" d="M182.5194,-359.529C172.477,-352.9456 160.3953,-344.8379 149.7891,-337.2 135.5984,-326.9807 120.1752,-315.0737 107.6102,-305.1563"/>
<polygon fill="#000000" stroke="#000000" points="109.4267,-302.1296 99.4183,-298.6535 105.0745,-307.6122 109.4267,-302.1296"/>
<text text-anchor="middle" x="153.2891" y="-324.6" font-family="Times,serif" font-size="14.00" fill="#000000">0</text>
</g>
<!-- palace -->
<g id="node3" class="node">
<title>palace</title>
<ellipse fill="none" stroke="#000000" cx="147.7891" cy="-18" rx="35.8921" ry="18"/>
<text text-anchor="middle" x="147.7891" y="-13.8" font-family="Times,serif" font-size="14.00" fill="#000000">palace</text>
</g>
<!-- home&#45;&gt;palace -->
<g id="edge3" class="edge">
<title>home-&gt;palace</title>
<path fill="none" stroke="#000000" d="M193.1661,-355.8776C183.5191,-338.4724 170.7891,-310.5504 170.7891,-284.4 170.7891,-284.4 170.7891,-284.4 170.7891,-106.8 170.7891,-85.6329 164.5891,-62.5083 158.6272,-45.1646"/>
<polygon fill="#000000" stroke="#000000" points="161.8884,-43.8907 155.1931,-35.6795 155.3065,-46.2737 161.8884,-43.8907"/>
<text text-anchor="middle" x="174.2891" y="-191.4" font-family="Times,serif" font-size="14.00" fill="#000000">0</text>
</g>
<!-- dealer -->
<g id="node6" class="node">
<title>dealer</title>
<ellipse fill="none" stroke="#000000" cx="233.7891" cy="-284.4" rx="34.7476" ry="18"/>
<text text-anchor="middle" x="233.7891" y="-280.2" font-family="Times,serif" font-size="14.00" fill="#000000">dealer</text>
</g>
<!-- home&#45;&gt;dealer -->
<g id="edge9" class="edge">
<title>home-&gt;dealer</title>
<path fill="none" stroke="#000000" d="M202.2657,-355.0794C202.0079,-344.6392 202.7579,-331.4392 206.7891,-320.4 208.196,-316.5473 210.1614,-312.7607 212.3971,-309.1752"/>
<polygon fill="#000000" stroke="#000000" points="215.4353,-310.9405 218.3469,-300.7536 209.7182,-306.9014 215.4353,-310.9405"/>
<text text-anchor="middle" x="210.2891" y="-324.6" font-family="Times,serif" font-size="14.00" fill="#000000">0</text>
</g>
<!-- cave&#45;&gt;palace -->
<g id="edge2" class="edge">
<title>cave-&gt;palace</title>
<path fill="none" stroke="#000000" d="M67.3859,-268.7532C37.5068,-234.3187 -25.4449,-150.1609 11.7891,-88.8 31.8505,-55.7392 72.9407,-37.401 104.7318,-27.7226"/>
<polygon fill="#000000" stroke="#000000" points="106.0352,-30.9903 114.6883,-24.8768 104.1115,-24.2598 106.0352,-30.9903"/>
<text text-anchor="middle" x="7.2891" y="-147" font-family="Times,serif" font-size="14.00" fill="#000000">0</text>
</g>
<!-- dungeon -->
<g id="node4" class="node">
<title>dungeon</title>
<ellipse fill="none" stroke="#000000" cx="81.7891" cy="-195.6" rx="44.0891" ry="18"/>
<text text-anchor="middle" x="81.7891" y="-191.4" font-family="Times,serif" font-size="14.00" fill="#000000">dungeon</text>
</g>
<!-- cave&#45;&gt;dungeon -->
<g id="edge4" class="edge">
<title>cave-&gt;dungeon</title>
<path fill="none" stroke="#000000" d="M81.7891,-266.0006C81.7891,-253.8949 81.7891,-237.8076 81.7891,-224.0674"/>
<polygon fill="#000000" stroke="#000000" points="85.2892,-223.672 81.7891,-213.672 78.2892,-223.6721 85.2892,-223.672"/>
<text text-anchor="middle" x="85.2891" y="-235.8" font-family="Times,serif" font-size="14.00" fill="#000000">1</text>
</g>
<!-- palace&#45;&gt;home -->
<g id="edge5" class="edge">
<title>palace-&gt;home</title>
<path fill="none" stroke="#000000" d="M182.3472,-23.0684C226.3633,-31.7031 296.7891,-53.8 296.7891,-106.8 296.7891,-284.4 296.7891,-284.4 296.7891,-284.4 296.7891,-317.7491 265.1207,-342.4153 238.7435,-357.1762"/>
<polygon fill="#000000" stroke="#000000" points="236.8847,-354.2003 229.6948,-361.9822 240.1682,-360.3825 236.8847,-354.2003"/>
<text text-anchor="middle" x="300.2891" y="-191.4" font-family="Times,serif" font-size="14.00" fill="#000000">0</text>
</g>
<!-- monsters lair -->
<g id="node5" class="node">
<title>monsters lair</title>
<ellipse fill="none" stroke="#000000" cx="81.7891" cy="-106.8" rx="61.3706" ry="18"/>
<text text-anchor="middle" x="81.7891" y="-102.6" font-family="Times,serif" font-size="14.00" fill="#000000">monsters lair</text>
</g>
<!-- dungeon&#45;&gt;monsters lair -->
<g id="edge7" class="edge">
<title>dungeon-&gt;monsters lair</title>
<path fill="none" stroke="#000000" d="M81.7891,-177.2006C81.7891,-165.0949 81.7891,-149.0076 81.7891,-135.2674"/>
<polygon fill="#000000" stroke="#000000" points="85.2892,-134.872 81.7891,-124.872 78.2892,-134.8721 85.2892,-134.872"/>
<text text-anchor="middle" x="85.2891" y="-147" font-family="Times,serif" font-size="14.00" fill="#000000">0</text>
</g>
<!-- monsters lair&#45;&gt;palace -->
<g id="edge6" class="edge">
<title>monsters lair-&gt;palace</title>
<path fill="none" stroke="#000000" d="M95.1452,-88.83C104.9062,-75.697 118.2723,-57.7135 129.0937,-43.1538"/>
<polygon fill="#000000" stroke="#000000" points="131.9685,-45.1533 135.1247,-35.0394 126.3503,-40.9776 131.9685,-45.1533"/>
<text text-anchor="middle" x="124.2891" y="-58.2" font-family="Times,serif" font-size="14.00" fill="#000000">0</text>
</g>
<!-- dealer&#45;&gt;home -->
<g id="edge8" class="edge">
<title>dealer-&gt;home</title>
<path fill="none" stroke="#000000" d="M227.7272,-302.3433C223.541,-314.7344 217.8929,-331.4529 213.1343,-345.5384"/>
<polygon fill="#000000" stroke="#000000" points="209.7449,-344.6358 209.8601,-355.23 216.3767,-346.8763 209.7449,-344.6358"/>
<text text-anchor="middle" x="224.2891" y="-324.6" font-family="Times,serif" font-size="14.00" fill="#000000">0</text>
</g>
</g>
</svg>